<svg xmlns="http://www.w3.org/2000/svg" style="fill:white" viewBox="0 0 1549.77 353.1"><title>Asset 1</title><g id="Layer_2" data-name="Layer 2"><g id="Layer_1-2" data-name="Layer 1"><path d="M0,176.55C0,76.51,81.65,0,177.86,0S355.71,76.51,355.71,176.55,274.06,353.1,177.86,353.1,0,276.6,0,176.55Zm71.14,0c0,60.32,46.08,111.82,106.72,111.82s106.71-51.5,106.71-111.82S238.49,64.74,177.86,64.74,71.14,116.23,71.14,176.55Z"/><path d="M706.75,50.46l-.23-.25A154.27,154.27,0,0,0,636.3,6.34L635.13,6a155.07,155.07,0,0,0-42.78-6h-.81c-.68,0-1.35,0-2,0s-1.34,0-2,0h-.81a155.07,155.07,0,0,0-42.78,6l-1.17.35a154.27,154.27,0,0,0-70.22,43.87l-.23.25a150.37,150.37,0,0,0-39.2,101.82V320.74c-.77,40.38,62.22,43.2,69.63,7.19a34.83,34.83,0,0,0,.7-6.46l.4-83.23.41-86c0-45.51,33.51-86,79.88-87.5.86,0,1.72,0,2.58,0s1.6,0,2.4.05v0H590v0c.8,0,1.59-.05,2.4-.05s1.72,0,2.58,0c46.37,1.45,79.88,42,79.88,87.5l.41,86,.4,83.23a34.83,34.83,0,0,0,.7,6.46c7.41,36,70.4,33.19,69.63-7.19V152.28A150.37,150.37,0,0,0,706.75,50.46Z"/><path d="M1081.68,247.91c28.3-34.58,85.7,2.94,58.21,38.25C1116.45,315.59,1076,353.1,996.8,353.1,903,353.1,823,277.33,823,176.55S903,0,996.8,0c80,0,120.45,34.58,143.09,63.27,27.49,34.57-30.72,72.09-58.21,36.78-12.93-16.92-38.8-35.31-84.88-35.31C937,64.74,894.13,117,894.13,176.55S937,288.37,996.8,288.37C1043.69,288.37,1067.94,265.56,1081.68,247.91Z"/><path d="M1194.06,176.55c0-100,81.65-176.55,177.85-176.55s177.86,76.51,177.86,176.55S1468.12,353.1,1371.91,353.1,1194.06,276.6,1194.06,176.55Zm71.14,0c0,60.32,46.08,111.82,106.71,111.82s106.72-51.5,106.72-111.82S1432.55,64.74,1371.91,64.74,1265.2,116.23,1265.2,176.55Z"/></g></g></svg>